<mxfile host="Electron" modified="2024-02-03T00:48:57.791Z" agent="Mozilla/5.0 (Windows NT 10.0; Win64; x64) AppleWebKit/537.36 (KHTML, like Gecko) draw.io/22.1.21 Chrome/120.0.6099.109 Electron/28.1.0 Safari/537.36" etag="Tsq8xXZNeSmmmd7ZPwZb" version="22.1.21" type="device" pages="6">
  <diagram name="Деокомпазиция в нотации IDEF0" id="QbQMFj3pLFlioGWTIUlj">
    <mxGraphModel dx="2711" dy="1135" grid="1" gridSize="10" guides="1" tooltips="1" connect="1" arrows="1" fold="1" page="1" pageScale="1" pageWidth="827" pageHeight="1169" math="0" shadow="0">
      <root>
        <mxCell id="0" />
        <mxCell id="1" parent="0" />
        <mxCell id="1KQryMesw0c7zailVE4U-1" value="" style="group" vertex="1" connectable="0" parent="1">
          <mxGeometry x="-700" y="45" width="2080" height="595" as="geometry" />
        </mxCell>
        <mxCell id="DNVg9rjB00Yvar9daIcB-3" value="Прием и учет товаров" style="rounded=0;whiteSpace=wrap;html=1;" vertex="1" parent="1KQryMesw0c7zailVE4U-1">
          <mxGeometry x="190" y="115" width="120" height="60" as="geometry" />
        </mxCell>
        <mxCell id="DNVg9rjB00Yvar9daIcB-4" value="" style="endArrow=classic;html=1;rounded=0;" edge="1" parent="1KQryMesw0c7zailVE4U-1">
          <mxGeometry width="50" height="50" relative="1" as="geometry">
            <mxPoint x="120" y="165" as="sourcePoint" />
            <mxPoint x="190" y="165" as="targetPoint" />
          </mxGeometry>
        </mxCell>
        <mxCell id="DNVg9rjB00Yvar9daIcB-5" value="" style="endArrow=classic;html=1;rounded=0;" edge="1" parent="1KQryMesw0c7zailVE4U-1">
          <mxGeometry width="50" height="50" relative="1" as="geometry">
            <mxPoint x="310" y="125" as="sourcePoint" />
            <mxPoint x="520" y="125" as="targetPoint" />
          </mxGeometry>
        </mxCell>
        <mxCell id="DNVg9rjB00Yvar9daIcB-6" value="Приянятие новых товаров на склад" style="text;html=1;align=center;verticalAlign=middle;resizable=0;points=[];autosize=1;strokeColor=none;fillColor=none;" vertex="1" parent="1KQryMesw0c7zailVE4U-1">
          <mxGeometry x="300" y="105" width="220" height="30" as="geometry" />
        </mxCell>
        <mxCell id="DNVg9rjB00Yvar9daIcB-7" value="Внесение информации в систему учета" style="text;html=1;align=center;verticalAlign=middle;resizable=0;points=[];autosize=1;strokeColor=none;fillColor=none;" vertex="1" parent="1KQryMesw0c7zailVE4U-1">
          <mxGeometry x="320" y="205" width="240" height="30" as="geometry" />
        </mxCell>
        <mxCell id="DNVg9rjB00Yvar9daIcB-8" style="edgeStyle=orthogonalEdgeStyle;rounded=0;orthogonalLoop=1;jettySize=auto;html=1;entryX=0.5;entryY=0;entryDx=0;entryDy=0;" edge="1" parent="1KQryMesw0c7zailVE4U-1" source="DNVg9rjB00Yvar9daIcB-9" target="DNVg9rjB00Yvar9daIcB-3">
          <mxGeometry relative="1" as="geometry">
            <Array as="points">
              <mxPoint x="250" y="65" />
              <mxPoint x="250" y="65" />
            </Array>
          </mxGeometry>
        </mxCell>
        <mxCell id="DNVg9rjB00Yvar9daIcB-9" value="Внесение информации в систему учета" style="text;html=1;align=center;verticalAlign=middle;resizable=0;points=[];autosize=1;strokeColor=none;fillColor=none;" vertex="1" parent="1KQryMesw0c7zailVE4U-1">
          <mxGeometry x="130" width="240" height="30" as="geometry" />
        </mxCell>
        <mxCell id="DNVg9rjB00Yvar9daIcB-10" value="Товары" style="text;html=1;align=center;verticalAlign=middle;resizable=0;points=[];autosize=1;strokeColor=none;fillColor=none;" vertex="1" parent="1KQryMesw0c7zailVE4U-1">
          <mxGeometry x="130" y="145" width="60" height="30" as="geometry" />
        </mxCell>
        <mxCell id="DNVg9rjB00Yvar9daIcB-12" value="Мониторинг перемещения товаров по складу" style="whiteSpace=wrap;html=1;" vertex="1" parent="1KQryMesw0c7zailVE4U-1">
          <mxGeometry x="560" y="205" width="120" height="60" as="geometry" />
        </mxCell>
        <mxCell id="DNVg9rjB00Yvar9daIcB-2" style="edgeStyle=orthogonalEdgeStyle;rounded=0;orthogonalLoop=1;jettySize=auto;html=1;entryX=0;entryY=0.5;entryDx=0;entryDy=0;exitX=1.017;exitY=0.851;exitDx=0;exitDy=0;exitPerimeter=0;" edge="1" parent="1KQryMesw0c7zailVE4U-1" source="DNVg9rjB00Yvar9daIcB-3" target="DNVg9rjB00Yvar9daIcB-12">
          <mxGeometry relative="1" as="geometry">
            <mxPoint x="320" y="165" as="sourcePoint" />
            <Array as="points">
              <mxPoint x="320" y="166" />
              <mxPoint x="320" y="235" />
            </Array>
          </mxGeometry>
        </mxCell>
        <mxCell id="DNVg9rjB00Yvar9daIcB-13" value="" style="endArrow=classic;html=1;rounded=0;exitX=1.003;exitY=1.056;exitDx=0;exitDy=0;exitPerimeter=0;" edge="1" parent="1KQryMesw0c7zailVE4U-1" source="DNVg9rjB00Yvar9daIcB-14">
          <mxGeometry width="50" height="50" relative="1" as="geometry">
            <mxPoint x="580" y="345" as="sourcePoint" />
            <mxPoint x="580" y="265" as="targetPoint" />
          </mxGeometry>
        </mxCell>
        <mxCell id="DNVg9rjB00Yvar9daIcB-14" value="Использование специальных сканеров или беспроводных устройств" style="text;html=1;align=center;verticalAlign=middle;resizable=0;points=[];autosize=1;strokeColor=none;fillColor=none;" vertex="1" parent="1KQryMesw0c7zailVE4U-1">
          <mxGeometry x="170" y="365" width="410" height="30" as="geometry" />
        </mxCell>
        <mxCell id="DNVg9rjB00Yvar9daIcB-15" value="" style="endArrow=classic;html=1;rounded=0;" edge="1" parent="1KQryMesw0c7zailVE4U-1">
          <mxGeometry width="50" height="50" relative="1" as="geometry">
            <mxPoint x="610" y="425" as="sourcePoint" />
            <mxPoint x="610" y="265" as="targetPoint" />
          </mxGeometry>
        </mxCell>
        <mxCell id="DNVg9rjB00Yvar9daIcB-16" value="Сканирование товаров при перемещении" style="text;html=1;align=center;verticalAlign=middle;resizable=0;points=[];autosize=1;strokeColor=none;fillColor=none;" vertex="1" parent="1KQryMesw0c7zailVE4U-1">
          <mxGeometry x="490" y="435" width="260" height="30" as="geometry" />
        </mxCell>
        <mxCell id="DNVg9rjB00Yvar9daIcB-17" value="Обновление информации о местонахождении в системе учета" style="text;html=1;align=center;verticalAlign=middle;resizable=0;points=[];autosize=1;strokeColor=none;fillColor=none;" vertex="1" parent="1KQryMesw0c7zailVE4U-1">
          <mxGeometry x="420" y="65" width="370" height="30" as="geometry" />
        </mxCell>
        <mxCell id="DNVg9rjB00Yvar9daIcB-18" value="" style="endArrow=classic;html=1;rounded=0;entryX=0.167;entryY=0;entryDx=0;entryDy=0;entryPerimeter=0;" edge="1" parent="1KQryMesw0c7zailVE4U-1" target="DNVg9rjB00Yvar9daIcB-12">
          <mxGeometry width="50" height="50" relative="1" as="geometry">
            <mxPoint x="580" y="105" as="sourcePoint" />
            <mxPoint x="580" y="195" as="targetPoint" />
          </mxGeometry>
        </mxCell>
        <mxCell id="DNVg9rjB00Yvar9daIcB-19" value="" style="endArrow=classic;html=1;rounded=0;entryX=1.012;entryY=0.954;entryDx=0;entryDy=0;entryPerimeter=0;" edge="1" parent="1KQryMesw0c7zailVE4U-1" target="DNVg9rjB00Yvar9daIcB-20">
          <mxGeometry width="50" height="50" relative="1" as="geometry">
            <mxPoint x="680" y="225" as="sourcePoint" />
            <mxPoint x="960" y="225" as="targetPoint" />
          </mxGeometry>
        </mxCell>
        <mxCell id="DNVg9rjB00Yvar9daIcB-20" value="&lt;br&gt;контроль за перемещением товаров" style="text;html=1;align=center;verticalAlign=middle;resizable=0;points=[];autosize=1;strokeColor=none;fillColor=none;" vertex="1" parent="1KQryMesw0c7zailVE4U-1">
          <mxGeometry x="670" y="185" width="230" height="40" as="geometry" />
        </mxCell>
        <mxCell id="DNVg9rjB00Yvar9daIcB-22" value="Учет продаж товаров" style="whiteSpace=wrap;html=1;" vertex="1" parent="1KQryMesw0c7zailVE4U-1">
          <mxGeometry x="840" y="265" width="120" height="60" as="geometry" />
        </mxCell>
        <mxCell id="DNVg9rjB00Yvar9daIcB-11" style="edgeStyle=orthogonalEdgeStyle;rounded=0;orthogonalLoop=1;jettySize=auto;html=1;exitX=1;exitY=0.75;exitDx=0;exitDy=0;entryX=0;entryY=0.75;entryDx=0;entryDy=0;" edge="1" parent="1KQryMesw0c7zailVE4U-1" source="DNVg9rjB00Yvar9daIcB-12" target="DNVg9rjB00Yvar9daIcB-22">
          <mxGeometry relative="1" as="geometry">
            <Array as="points">
              <mxPoint x="680" y="255" />
              <mxPoint x="690" y="255" />
              <mxPoint x="690" y="310" />
            </Array>
          </mxGeometry>
        </mxCell>
        <mxCell id="DNVg9rjB00Yvar9daIcB-23" value="Обновление информации&lt;br&gt;&amp;nbsp;о наличии товаров" style="text;html=1;align=center;verticalAlign=middle;resizable=0;points=[];autosize=1;strokeColor=none;fillColor=none;" vertex="1" parent="1KQryMesw0c7zailVE4U-1">
          <mxGeometry x="680" y="275" width="170" height="40" as="geometry" />
        </mxCell>
        <mxCell id="DNVg9rjB00Yvar9daIcB-24" value="Использование специальных сканеров или беспроводных устройств" style="text;html=1;align=center;verticalAlign=middle;resizable=0;points=[];autosize=1;strokeColor=none;fillColor=none;" vertex="1" parent="1KQryMesw0c7zailVE4U-1">
          <mxGeometry y="275" width="410" height="30" as="geometry" />
        </mxCell>
        <mxCell id="DNVg9rjB00Yvar9daIcB-25" value="" style="endArrow=classic;html=1;rounded=0;entryX=0.25;entryY=1;entryDx=0;entryDy=0;exitX=0.536;exitY=0.073;exitDx=0;exitDy=0;exitPerimeter=0;" edge="1" parent="1KQryMesw0c7zailVE4U-1" source="DNVg9rjB00Yvar9daIcB-24" target="DNVg9rjB00Yvar9daIcB-3">
          <mxGeometry width="50" height="50" relative="1" as="geometry">
            <mxPoint x="200" y="275" as="sourcePoint" />
            <mxPoint x="200" y="185" as="targetPoint" />
          </mxGeometry>
        </mxCell>
        <mxCell id="DNVg9rjB00Yvar9daIcB-26" value="" style="endArrow=classic;html=1;rounded=0;" edge="1" parent="1KQryMesw0c7zailVE4U-1">
          <mxGeometry width="50" height="50" relative="1" as="geometry">
            <mxPoint x="850" y="405" as="sourcePoint" />
            <mxPoint x="850" y="325" as="targetPoint" />
          </mxGeometry>
        </mxCell>
        <mxCell id="DNVg9rjB00Yvar9daIcB-27" value="Сканирование&lt;br&gt;&amp;nbsp;товаров при продаже" style="text;html=1;align=center;verticalAlign=middle;resizable=0;points=[];autosize=1;strokeColor=none;fillColor=none;" vertex="1" parent="1KQryMesw0c7zailVE4U-1">
          <mxGeometry x="740" y="395" width="150" height="40" as="geometry" />
        </mxCell>
        <mxCell id="DNVg9rjB00Yvar9daIcB-28" value="" style="endArrow=classic;html=1;rounded=0;" edge="1" parent="1KQryMesw0c7zailVE4U-1">
          <mxGeometry width="50" height="50" relative="1" as="geometry">
            <mxPoint x="950.34" y="405" as="sourcePoint" />
            <mxPoint x="950" y="325" as="targetPoint" />
          </mxGeometry>
        </mxCell>
        <mxCell id="DNVg9rjB00Yvar9daIcB-29" value="Автоматическое уменьшение&lt;br&gt;&amp;nbsp;количества в системе учета" style="text;html=1;align=center;verticalAlign=middle;resizable=0;points=[];autosize=1;strokeColor=none;fillColor=none;" vertex="1" parent="1KQryMesw0c7zailVE4U-1">
          <mxGeometry x="870" y="405" width="190" height="40" as="geometry" />
        </mxCell>
        <mxCell id="DNVg9rjB00Yvar9daIcB-30" style="edgeStyle=orthogonalEdgeStyle;rounded=0;orthogonalLoop=1;jettySize=auto;html=1;entryX=0.75;entryY=0;entryDx=0;entryDy=0;" edge="1" parent="1KQryMesw0c7zailVE4U-1" target="DNVg9rjB00Yvar9daIcB-22">
          <mxGeometry relative="1" as="geometry">
            <Array as="points">
              <mxPoint x="930" y="185" />
              <mxPoint x="930" y="185" />
            </Array>
            <mxPoint x="930" y="155" as="sourcePoint" />
          </mxGeometry>
        </mxCell>
        <mxCell id="DNVg9rjB00Yvar9daIcB-31" value="Генерация документов о продаже" style="text;html=1;align=center;verticalAlign=middle;resizable=0;points=[];autosize=1;strokeColor=none;fillColor=none;" vertex="1" parent="1KQryMesw0c7zailVE4U-1">
          <mxGeometry x="960" y="274.84000000000003" width="210" height="30" as="geometry" />
        </mxCell>
        <mxCell id="DNVg9rjB00Yvar9daIcB-32" value="" style="endArrow=classic;html=1;rounded=0;" edge="1" parent="1KQryMesw0c7zailVE4U-1">
          <mxGeometry width="50" height="50" relative="1" as="geometry">
            <mxPoint x="960" y="274.84" as="sourcePoint" />
            <mxPoint x="1180" y="274.84" as="targetPoint" />
          </mxGeometry>
        </mxCell>
        <mxCell id="DNVg9rjB00Yvar9daIcB-33" value="Обновление информации о наличии товаров" style="text;html=1;align=center;verticalAlign=middle;resizable=0;points=[];autosize=1;strokeColor=none;fillColor=none;" vertex="1" parent="1KQryMesw0c7zailVE4U-1">
          <mxGeometry x="950" y="244.83999999999997" width="280" height="30" as="geometry" />
        </mxCell>
        <mxCell id="DNVg9rjB00Yvar9daIcB-35" value="Автоматическое уведомление о необходимости пополнения запасов" style="whiteSpace=wrap;html=1;" vertex="1" parent="1KQryMesw0c7zailVE4U-1">
          <mxGeometry x="1230" y="335" width="120" height="60" as="geometry" />
        </mxCell>
        <mxCell id="DNVg9rjB00Yvar9daIcB-21" style="edgeStyle=orthogonalEdgeStyle;rounded=0;orthogonalLoop=1;jettySize=auto;html=1;exitX=1;exitY=0.75;exitDx=0;exitDy=0;entryX=0;entryY=0.5;entryDx=0;entryDy=0;" edge="1" parent="1KQryMesw0c7zailVE4U-1" source="DNVg9rjB00Yvar9daIcB-22" target="DNVg9rjB00Yvar9daIcB-35">
          <mxGeometry relative="1" as="geometry">
            <Array as="points">
              <mxPoint x="970" y="310" />
              <mxPoint x="970" y="365" />
            </Array>
          </mxGeometry>
        </mxCell>
        <mxCell id="DNVg9rjB00Yvar9daIcB-36" style="edgeStyle=orthogonalEdgeStyle;rounded=0;orthogonalLoop=1;jettySize=auto;html=1;entryX=0.5;entryY=0;entryDx=0;entryDy=0;" edge="1" parent="1KQryMesw0c7zailVE4U-1" target="DNVg9rjB00Yvar9daIcB-35">
          <mxGeometry relative="1" as="geometry">
            <mxPoint x="1290" y="225" as="sourcePoint" />
          </mxGeometry>
        </mxCell>
        <mxCell id="DNVg9rjB00Yvar9daIcB-37" value="" style="endArrow=classic;html=1;rounded=0;" edge="1" parent="1KQryMesw0c7zailVE4U-1">
          <mxGeometry width="50" height="50" relative="1" as="geometry">
            <mxPoint x="1350" y="335" as="sourcePoint" />
            <mxPoint x="1580" y="335" as="targetPoint" />
          </mxGeometry>
        </mxCell>
        <mxCell id="DNVg9rjB00Yvar9daIcB-38" value="Генерация уведомлений&lt;br&gt;&amp;nbsp;и предупреждений о нехватке товаров" style="text;html=1;align=center;verticalAlign=middle;resizable=0;points=[];autosize=1;strokeColor=none;fillColor=none;" vertex="1" parent="1KQryMesw0c7zailVE4U-1">
          <mxGeometry x="1340" y="295" width="240" height="40" as="geometry" />
        </mxCell>
        <mxCell id="DNVg9rjB00Yvar9daIcB-39" value="Мониторинг уровня запасов" style="text;html=1;align=center;verticalAlign=middle;resizable=0;points=[];autosize=1;strokeColor=none;fillColor=none;" vertex="1" parent="1KQryMesw0c7zailVE4U-1">
          <mxGeometry x="960" y="340" width="180" height="30" as="geometry" />
        </mxCell>
        <mxCell id="DNVg9rjB00Yvar9daIcB-40" value="" style="endArrow=classic;html=1;rounded=0;entryX=0.972;entryY=0.975;entryDx=0;entryDy=0;entryPerimeter=0;" edge="1" parent="1KQryMesw0c7zailVE4U-1" target="DNVg9rjB00Yvar9daIcB-41">
          <mxGeometry width="50" height="50" relative="1" as="geometry">
            <mxPoint x="1350" y="375" as="sourcePoint" />
            <mxPoint x="1580" y="375" as="targetPoint" />
          </mxGeometry>
        </mxCell>
        <mxCell id="DNVg9rjB00Yvar9daIcB-41" value="Сравнение с установленными&lt;br&gt;&amp;nbsp;пороговыми значениями" style="text;html=1;align=center;verticalAlign=middle;resizable=0;points=[];autosize=1;strokeColor=none;fillColor=none;" vertex="1" parent="1KQryMesw0c7zailVE4U-1">
          <mxGeometry x="1340" y="335" width="190" height="40" as="geometry" />
        </mxCell>
        <mxCell id="DNVg9rjB00Yvar9daIcB-43" value="Анализ продаж и управление поставками" style="whiteSpace=wrap;html=1;" vertex="1" parent="1KQryMesw0c7zailVE4U-1">
          <mxGeometry x="1540" y="420" width="120" height="60" as="geometry" />
        </mxCell>
        <mxCell id="DNVg9rjB00Yvar9daIcB-34" style="edgeStyle=orthogonalEdgeStyle;rounded=0;orthogonalLoop=1;jettySize=auto;html=1;exitX=1;exitY=0.75;exitDx=0;exitDy=0;entryX=0;entryY=0.75;entryDx=0;entryDy=0;" edge="1" parent="1KQryMesw0c7zailVE4U-1" source="DNVg9rjB00Yvar9daIcB-35" target="DNVg9rjB00Yvar9daIcB-43">
          <mxGeometry relative="1" as="geometry">
            <Array as="points">
              <mxPoint x="1350" y="385" />
              <mxPoint x="1360" y="385" />
              <mxPoint x="1360" y="465" />
            </Array>
          </mxGeometry>
        </mxCell>
        <mxCell id="DNVg9rjB00Yvar9daIcB-44" value="Планирование&lt;br&gt;&amp;nbsp;и координация поставок" style="text;html=1;align=center;verticalAlign=middle;resizable=0;points=[];autosize=1;strokeColor=none;fillColor=none;" vertex="1" parent="1KQryMesw0c7zailVE4U-1">
          <mxGeometry x="1650" y="395" width="160" height="40" as="geometry" />
        </mxCell>
        <mxCell id="DNVg9rjB00Yvar9daIcB-45" value="" style="endArrow=classic;html=1;rounded=0;" edge="1" parent="1KQryMesw0c7zailVE4U-1">
          <mxGeometry width="50" height="50" relative="1" as="geometry">
            <mxPoint x="1660" y="435" as="sourcePoint" />
            <mxPoint x="1830" y="435" as="targetPoint" />
          </mxGeometry>
        </mxCell>
        <mxCell id="DNVg9rjB00Yvar9daIcB-46" value="Прогнозирование потребности&lt;br&gt;&amp;nbsp;в поставках" style="text;html=1;align=center;verticalAlign=middle;resizable=0;points=[];autosize=1;strokeColor=none;fillColor=none;" vertex="1" parent="1KQryMesw0c7zailVE4U-1">
          <mxGeometry x="1350" y="425" width="190" height="40" as="geometry" />
        </mxCell>
        <mxCell id="DNVg9rjB00Yvar9daIcB-47" style="edgeStyle=orthogonalEdgeStyle;rounded=0;orthogonalLoop=1;jettySize=auto;html=1;entryX=0.5;entryY=0;entryDx=0;entryDy=0;" edge="1" parent="1KQryMesw0c7zailVE4U-1" source="DNVg9rjB00Yvar9daIcB-48" target="DNVg9rjB00Yvar9daIcB-43">
          <mxGeometry relative="1" as="geometry" />
        </mxCell>
        <mxCell id="DNVg9rjB00Yvar9daIcB-48" value="Анализ данных для выявления популярных&lt;br&gt;&amp;nbsp;и медленно продающихся товаров" style="text;html=1;align=center;verticalAlign=middle;resizable=0;points=[];autosize=1;strokeColor=none;fillColor=none;" vertex="1" parent="1KQryMesw0c7zailVE4U-1">
          <mxGeometry x="1465" y="215" width="270" height="40" as="geometry" />
        </mxCell>
        <mxCell id="DNVg9rjB00Yvar9daIcB-49" value="Хранение информации о состоянии товаров на складе" style="whiteSpace=wrap;html=1;" vertex="1" parent="1KQryMesw0c7zailVE4U-1">
          <mxGeometry x="1780" y="535" width="120" height="60" as="geometry" />
        </mxCell>
        <mxCell id="DNVg9rjB00Yvar9daIcB-42" style="edgeStyle=orthogonalEdgeStyle;rounded=0;orthogonalLoop=1;jettySize=auto;html=1;exitX=1;exitY=0.75;exitDx=0;exitDy=0;entryX=0;entryY=0.75;entryDx=0;entryDy=0;" edge="1" parent="1KQryMesw0c7zailVE4U-1" source="DNVg9rjB00Yvar9daIcB-43" target="DNVg9rjB00Yvar9daIcB-49">
          <mxGeometry relative="1" as="geometry">
            <Array as="points">
              <mxPoint x="1670" y="465" />
              <mxPoint x="1670" y="580" />
            </Array>
          </mxGeometry>
        </mxCell>
        <mxCell id="DNVg9rjB00Yvar9daIcB-50" value="Сохранение подробной информации о каждом товаре" style="text;html=1;align=center;verticalAlign=middle;resizable=0;points=[];autosize=1;strokeColor=none;fillColor=none;" vertex="1" parent="1KQryMesw0c7zailVE4U-1">
          <mxGeometry x="1690" y="305" width="330" height="30" as="geometry" />
        </mxCell>
        <mxCell id="DNVg9rjB00Yvar9daIcB-51" value="" style="endArrow=classic;html=1;rounded=0;" edge="1" parent="1KQryMesw0c7zailVE4U-1">
          <mxGeometry width="50" height="50" relative="1" as="geometry">
            <mxPoint x="1900" y="545" as="sourcePoint" />
            <mxPoint x="2080" y="545" as="targetPoint" />
          </mxGeometry>
        </mxCell>
        <mxCell id="DNVg9rjB00Yvar9daIcB-52" value="Обновление параметров&lt;br&gt;&amp;nbsp;(срок годности, статус и др.)" style="text;html=1;align=center;verticalAlign=middle;resizable=0;points=[];autosize=1;strokeColor=none;fillColor=none;" vertex="1" parent="1KQryMesw0c7zailVE4U-1">
          <mxGeometry x="1890" y="505" width="180" height="40" as="geometry" />
        </mxCell>
        <mxCell id="DNVg9rjB00Yvar9daIcB-53" value="" style="edgeStyle=none;orthogonalLoop=1;jettySize=auto;html=1;rounded=0;" edge="1" parent="1KQryMesw0c7zailVE4U-1">
          <mxGeometry width="100" relative="1" as="geometry">
            <mxPoint x="1900" y="585" as="sourcePoint" />
            <mxPoint x="2080" y="585" as="targetPoint" />
            <Array as="points" />
          </mxGeometry>
        </mxCell>
        <mxCell id="DNVg9rjB00Yvar9daIcB-54" value="Создание архива данных&lt;br&gt;&amp;nbsp;для аналитики и отчетности" style="text;html=1;align=center;verticalAlign=middle;resizable=0;points=[];autosize=1;strokeColor=none;fillColor=none;" vertex="1" parent="1KQryMesw0c7zailVE4U-1">
          <mxGeometry x="1890" y="545" width="180" height="40" as="geometry" />
        </mxCell>
        <mxCell id="DNVg9rjB00Yvar9daIcB-55" value="" style="endArrow=classic;html=1;rounded=0;entryX=0.667;entryY=0;entryDx=0;entryDy=0;entryPerimeter=0;" edge="1" parent="1KQryMesw0c7zailVE4U-1" target="DNVg9rjB00Yvar9daIcB-49">
          <mxGeometry width="50" height="50" relative="1" as="geometry">
            <mxPoint x="1860" y="345" as="sourcePoint" />
            <mxPoint x="1860" y="375" as="targetPoint" />
          </mxGeometry>
        </mxCell>
        <mxCell id="DNVg9rjB00Yvar9daIcB-56" value="" style="endArrow=classic;startArrow=none;html=1;rounded=0;startFill=0;entryX=0.25;entryY=1;entryDx=0;entryDy=0;" edge="1" parent="1KQryMesw0c7zailVE4U-1" target="DNVg9rjB00Yvar9daIcB-43">
          <mxGeometry width="50" height="50" relative="1" as="geometry">
            <mxPoint x="1570" y="565" as="sourcePoint" />
            <mxPoint x="1590" y="515" as="targetPoint" />
          </mxGeometry>
        </mxCell>
        <mxCell id="DNVg9rjB00Yvar9daIcB-57" value="Менеджер" style="text;html=1;align=center;verticalAlign=middle;resizable=0;points=[];autosize=1;strokeColor=none;fillColor=none;" vertex="1" parent="1KQryMesw0c7zailVE4U-1">
          <mxGeometry x="1530" y="563" width="80" height="30" as="geometry" />
        </mxCell>
        <mxCell id="DNVg9rjB00Yvar9daIcB-58" value="Внут. регламент вида документа&amp;nbsp;" style="text;html=1;align=center;verticalAlign=middle;resizable=0;points=[];autosize=1;strokeColor=none;fillColor=none;" vertex="1" parent="1KQryMesw0c7zailVE4U-1">
          <mxGeometry x="1185" y="185" width="210" height="30" as="geometry" />
        </mxCell>
        <mxCell id="DNVg9rjB00Yvar9daIcB-59" value="" style="endArrow=classic;html=1;rounded=0;exitX=1;exitY=0.5;exitDx=0;exitDy=0;" edge="1" parent="1KQryMesw0c7zailVE4U-1" source="DNVg9rjB00Yvar9daIcB-22">
          <mxGeometry width="50" height="50" relative="1" as="geometry">
            <mxPoint x="1040" y="335" as="sourcePoint" />
            <mxPoint x="1180" y="295" as="targetPoint" />
          </mxGeometry>
        </mxCell>
        <mxCell id="DNVg9rjB00Yvar9daIcB-60" value="&lt;font style=&quot;font-size: 10px;&quot;&gt;ГОСТ Р 51304-2022 (&amp;nbsp;УСЛУГИ ТОРГОВЛИ)&lt;/font&gt;" style="text;html=1;align=center;verticalAlign=middle;resizable=0;points=[];autosize=1;strokeColor=none;fillColor=none;" vertex="1" parent="1KQryMesw0c7zailVE4U-1">
          <mxGeometry x="820" y="130" width="220" height="30" as="geometry" />
        </mxCell>
      </root>
    </mxGraphModel>
  </diagram>
  <diagram id="gwn9niBz6kNk7mF3B4zy" name="Диаграмма вариантов использования">
    <mxGraphModel dx="1183" dy="700" grid="1" gridSize="10" guides="1" tooltips="1" connect="1" arrows="1" fold="1" page="1" pageScale="1" pageWidth="827" pageHeight="1169" math="0" shadow="0">
      <root>
        <mxCell id="0" />
        <mxCell id="1" parent="0" />
        <mxCell id="56gIFiBQEkmXOvVW59Tv-18" style="edgeStyle=orthogonalEdgeStyle;rounded=0;orthogonalLoop=1;jettySize=auto;html=1;exitX=0.5;exitY=0.5;exitDx=0;exitDy=0;exitPerimeter=0;entryX=0;entryY=0.5;entryDx=0;entryDy=0;" edge="1" parent="1" source="56gIFiBQEkmXOvVW59Tv-1" target="56gIFiBQEkmXOvVW59Tv-6">
          <mxGeometry relative="1" as="geometry" />
        </mxCell>
        <mxCell id="56gIFiBQEkmXOvVW59Tv-25" value="include" style="edgeLabel;html=1;align=center;verticalAlign=middle;resizable=0;points=[];" vertex="1" connectable="0" parent="56gIFiBQEkmXOvVW59Tv-18">
          <mxGeometry x="0.0683" y="3" relative="1" as="geometry">
            <mxPoint as="offset" />
          </mxGeometry>
        </mxCell>
        <mxCell id="56gIFiBQEkmXOvVW59Tv-1" value="Менеджер по закупкам" style="shape=umlActor;verticalLabelPosition=bottom;verticalAlign=top;html=1;outlineConnect=0;" vertex="1" parent="1">
          <mxGeometry x="130" y="200" width="30" height="60" as="geometry" />
        </mxCell>
        <mxCell id="56gIFiBQEkmXOvVW59Tv-16" style="edgeStyle=orthogonalEdgeStyle;rounded=0;orthogonalLoop=1;jettySize=auto;html=1;exitX=0.5;exitY=0.5;exitDx=0;exitDy=0;exitPerimeter=0;entryX=0;entryY=0.5;entryDx=0;entryDy=0;" edge="1" parent="1" source="56gIFiBQEkmXOvVW59Tv-2" target="56gIFiBQEkmXOvVW59Tv-8">
          <mxGeometry relative="1" as="geometry" />
        </mxCell>
        <mxCell id="56gIFiBQEkmXOvVW59Tv-27" value="include" style="edgeLabel;html=1;align=center;verticalAlign=middle;resizable=0;points=[];" vertex="1" connectable="0" parent="56gIFiBQEkmXOvVW59Tv-16">
          <mxGeometry x="0.4472" y="1" relative="1" as="geometry">
            <mxPoint as="offset" />
          </mxGeometry>
        </mxCell>
        <mxCell id="56gIFiBQEkmXOvVW59Tv-17" style="edgeStyle=orthogonalEdgeStyle;rounded=0;orthogonalLoop=1;jettySize=auto;html=1;exitX=0.5;exitY=0.5;exitDx=0;exitDy=0;exitPerimeter=0;entryX=0;entryY=0.5;entryDx=0;entryDy=0;" edge="1" parent="1" source="56gIFiBQEkmXOvVW59Tv-2" target="56gIFiBQEkmXOvVW59Tv-7">
          <mxGeometry relative="1" as="geometry" />
        </mxCell>
        <mxCell id="56gIFiBQEkmXOvVW59Tv-26" value="include" style="edgeLabel;html=1;align=center;verticalAlign=middle;resizable=0;points=[];" vertex="1" connectable="0" parent="56gIFiBQEkmXOvVW59Tv-17">
          <mxGeometry x="0.496" relative="1" as="geometry">
            <mxPoint as="offset" />
          </mxGeometry>
        </mxCell>
        <mxCell id="56gIFiBQEkmXOvVW59Tv-2" value="Кладовщик" style="shape=umlActor;verticalLabelPosition=bottom;verticalAlign=top;html=1;outlineConnect=0;" vertex="1" parent="1">
          <mxGeometry x="130" y="330" width="30" height="60" as="geometry" />
        </mxCell>
        <mxCell id="56gIFiBQEkmXOvVW59Tv-15" style="edgeStyle=orthogonalEdgeStyle;rounded=0;orthogonalLoop=1;jettySize=auto;html=1;exitX=0.5;exitY=0.5;exitDx=0;exitDy=0;exitPerimeter=0;entryX=0;entryY=0.5;entryDx=0;entryDy=0;" edge="1" parent="1" source="56gIFiBQEkmXOvVW59Tv-3" target="56gIFiBQEkmXOvVW59Tv-9">
          <mxGeometry relative="1" as="geometry" />
        </mxCell>
        <mxCell id="56gIFiBQEkmXOvVW59Tv-28" value="include" style="edgeLabel;html=1;align=center;verticalAlign=middle;resizable=0;points=[];" vertex="1" connectable="0" parent="56gIFiBQEkmXOvVW59Tv-15">
          <mxGeometry x="0.0846" y="1" relative="1" as="geometry">
            <mxPoint as="offset" />
          </mxGeometry>
        </mxCell>
        <mxCell id="56gIFiBQEkmXOvVW59Tv-3" value="Менеджер по продажам" style="shape=umlActor;verticalLabelPosition=bottom;verticalAlign=top;html=1;outlineConnect=0;" vertex="1" parent="1">
          <mxGeometry x="130" y="460" width="30" height="60" as="geometry" />
        </mxCell>
        <mxCell id="56gIFiBQEkmXOvVW59Tv-14" style="edgeStyle=orthogonalEdgeStyle;rounded=0;orthogonalLoop=1;jettySize=auto;html=1;exitX=0.5;exitY=0.5;exitDx=0;exitDy=0;exitPerimeter=0;entryX=0;entryY=0.5;entryDx=0;entryDy=0;" edge="1" parent="1" source="56gIFiBQEkmXOvVW59Tv-4" target="56gIFiBQEkmXOvVW59Tv-10">
          <mxGeometry relative="1" as="geometry" />
        </mxCell>
        <mxCell id="56gIFiBQEkmXOvVW59Tv-29" value="include" style="edgeLabel;html=1;align=center;verticalAlign=middle;resizable=0;points=[];" vertex="1" connectable="0" parent="56gIFiBQEkmXOvVW59Tv-14">
          <mxGeometry x="-0.0512" y="3" relative="1" as="geometry">
            <mxPoint as="offset" />
          </mxGeometry>
        </mxCell>
        <mxCell id="56gIFiBQEkmXOvVW59Tv-4" value="Система уведомлений" style="shape=umlActor;verticalLabelPosition=bottom;verticalAlign=top;html=1;outlineConnect=0;" vertex="1" parent="1">
          <mxGeometry x="130" y="590" width="30" height="60" as="geometry" />
        </mxCell>
        <mxCell id="56gIFiBQEkmXOvVW59Tv-13" style="edgeStyle=orthogonalEdgeStyle;rounded=0;orthogonalLoop=1;jettySize=auto;html=1;exitX=0.5;exitY=0.5;exitDx=0;exitDy=0;exitPerimeter=0;entryX=0;entryY=0.5;entryDx=0;entryDy=0;" edge="1" parent="1" source="56gIFiBQEkmXOvVW59Tv-5" target="56gIFiBQEkmXOvVW59Tv-11">
          <mxGeometry relative="1" as="geometry" />
        </mxCell>
        <mxCell id="56gIFiBQEkmXOvVW59Tv-30" value="include" style="edgeLabel;html=1;align=center;verticalAlign=middle;resizable=0;points=[];" vertex="1" connectable="0" parent="56gIFiBQEkmXOvVW59Tv-13">
          <mxGeometry x="0.0109" y="-3" relative="1" as="geometry">
            <mxPoint as="offset" />
          </mxGeometry>
        </mxCell>
        <mxCell id="56gIFiBQEkmXOvVW59Tv-5" value="Аналитик" style="shape=umlActor;verticalLabelPosition=bottom;verticalAlign=top;html=1;outlineConnect=0;" vertex="1" parent="1">
          <mxGeometry x="130" y="720" width="30" height="60" as="geometry" />
        </mxCell>
        <mxCell id="56gIFiBQEkmXOvVW59Tv-6" value="Заказ товаров" style="ellipse;whiteSpace=wrap;html=1;" vertex="1" parent="1">
          <mxGeometry x="350" y="205" width="100" height="50" as="geometry" />
        </mxCell>
        <mxCell id="56gIFiBQEkmXOvVW59Tv-7" value="Приемка товаров" style="ellipse;whiteSpace=wrap;html=1;" vertex="1" parent="1">
          <mxGeometry x="350" y="290" width="100" height="50" as="geometry" />
        </mxCell>
        <mxCell id="56gIFiBQEkmXOvVW59Tv-8" value="Отгрузка товаров" style="ellipse;whiteSpace=wrap;html=1;" vertex="1" parent="1">
          <mxGeometry x="350" y="370" width="100" height="50" as="geometry" />
        </mxCell>
        <mxCell id="56gIFiBQEkmXOvVW59Tv-9" value="Регистрация продаж" style="ellipse;whiteSpace=wrap;html=1;" vertex="1" parent="1">
          <mxGeometry x="350" y="465" width="100" height="50" as="geometry" />
        </mxCell>
        <mxCell id="56gIFiBQEkmXOvVW59Tv-10" value="Уведомление о нехватке товаров" style="ellipse;whiteSpace=wrap;html=1;" vertex="1" parent="1">
          <mxGeometry x="360" y="595" width="100" height="50" as="geometry" />
        </mxCell>
        <mxCell id="56gIFiBQEkmXOvVW59Tv-11" value="&lt;font style=&quot;font-size: 10px;&quot;&gt;Анализ продаж и управление поставками&lt;/font&gt;" style="ellipse;whiteSpace=wrap;html=1;" vertex="1" parent="1">
          <mxGeometry x="360" y="725" width="100" height="50" as="geometry" />
        </mxCell>
        <mxCell id="56gIFiBQEkmXOvVW59Tv-31" value="" style="endArrow=none;dashed=1;html=1;dashPattern=1 3;strokeWidth=2;rounded=0;exitX=1;exitY=0.5;exitDx=0;exitDy=0;entryX=0;entryY=0.5;entryDx=0;entryDy=0;entryPerimeter=0;" edge="1" parent="1" source="56gIFiBQEkmXOvVW59Tv-6" target="56gIFiBQEkmXOvVW59Tv-37">
          <mxGeometry width="50" height="50" relative="1" as="geometry">
            <mxPoint x="480" y="470" as="sourcePoint" />
            <mxPoint x="552.5" y="212.5" as="targetPoint" />
          </mxGeometry>
        </mxCell>
        <mxCell id="56gIFiBQEkmXOvVW59Tv-32" value="" style="endArrow=none;dashed=1;html=1;dashPattern=1 3;strokeWidth=2;rounded=0;exitX=1;exitY=0.5;exitDx=0;exitDy=0;entryX=0;entryY=0.5;entryDx=0;entryDy=0;entryPerimeter=0;" edge="1" parent="1" source="56gIFiBQEkmXOvVW59Tv-7" target="56gIFiBQEkmXOvVW59Tv-38">
          <mxGeometry width="50" height="50" relative="1" as="geometry">
            <mxPoint x="460" y="240" as="sourcePoint" />
            <mxPoint x="552.5" y="307.5" as="targetPoint" />
          </mxGeometry>
        </mxCell>
        <mxCell id="56gIFiBQEkmXOvVW59Tv-33" value="" style="endArrow=none;dashed=1;html=1;dashPattern=1 3;strokeWidth=2;rounded=0;exitX=1;exitY=0.5;exitDx=0;exitDy=0;entryX=0;entryY=0.5;entryDx=0;entryDy=0;entryPerimeter=0;" edge="1" parent="1" source="56gIFiBQEkmXOvVW59Tv-8" target="56gIFiBQEkmXOvVW59Tv-39">
          <mxGeometry width="50" height="50" relative="1" as="geometry">
            <mxPoint x="460" y="325" as="sourcePoint" />
            <mxPoint x="552.5" y="392.5" as="targetPoint" />
          </mxGeometry>
        </mxCell>
        <mxCell id="56gIFiBQEkmXOvVW59Tv-34" value="" style="endArrow=none;dashed=1;html=1;dashPattern=1 3;strokeWidth=2;rounded=0;exitX=1;exitY=0.5;exitDx=0;exitDy=0;entryX=0;entryY=0.5;entryDx=0;entryDy=0;entryPerimeter=0;" edge="1" parent="1" source="56gIFiBQEkmXOvVW59Tv-9" target="56gIFiBQEkmXOvVW59Tv-40">
          <mxGeometry width="50" height="50" relative="1" as="geometry">
            <mxPoint x="470" y="335" as="sourcePoint" />
            <mxPoint x="552.5" y="490" as="targetPoint" />
          </mxGeometry>
        </mxCell>
        <mxCell id="56gIFiBQEkmXOvVW59Tv-35" value="" style="endArrow=none;dashed=1;html=1;dashPattern=1 3;strokeWidth=2;rounded=0;exitX=1;exitY=0.5;exitDx=0;exitDy=0;entryX=0;entryY=0.5;entryDx=0;entryDy=0;entryPerimeter=0;" edge="1" parent="1" source="56gIFiBQEkmXOvVW59Tv-10" target="56gIFiBQEkmXOvVW59Tv-41">
          <mxGeometry width="50" height="50" relative="1" as="geometry">
            <mxPoint x="460" y="500" as="sourcePoint" />
            <mxPoint x="552.5" y="625" as="targetPoint" />
          </mxGeometry>
        </mxCell>
        <mxCell id="56gIFiBQEkmXOvVW59Tv-36" value="" style="endArrow=none;dashed=1;html=1;dashPattern=1 3;strokeWidth=2;rounded=0;exitX=1;exitY=0.5;exitDx=0;exitDy=0;entryX=0;entryY=0.5;entryDx=0;entryDy=0;entryPerimeter=0;" edge="1" parent="1" source="56gIFiBQEkmXOvVW59Tv-11" target="56gIFiBQEkmXOvVW59Tv-42">
          <mxGeometry width="50" height="50" relative="1" as="geometry">
            <mxPoint x="470" y="630" as="sourcePoint" />
            <mxPoint x="552.5" y="750" as="targetPoint" />
          </mxGeometry>
        </mxCell>
        <mxCell id="56gIFiBQEkmXOvVW59Tv-37" value="&lt;font style=&quot;font-size: 10px;&quot;&gt;Менеджер по закупкам создает заказ на новые товары, взаимодействуя с системой учета товаров&lt;/font&gt;." style="shape=note;whiteSpace=wrap;html=1;backgroundOutline=1;darkOpacity=0.05;" vertex="1" parent="1">
          <mxGeometry x="480" y="205" width="290" height="50" as="geometry" />
        </mxCell>
        <mxCell id="56gIFiBQEkmXOvVW59Tv-38" value="Кладовщик взаимодействует с системой при приемке новых товаров, включая сканирование и обновление данных о товарах." style="shape=note;whiteSpace=wrap;html=1;backgroundOutline=1;darkOpacity=0.05;" vertex="1" parent="1">
          <mxGeometry x="480" y="290" width="290" height="50" as="geometry" />
        </mxCell>
        <mxCell id="56gIFiBQEkmXOvVW59Tv-39" value="Кладовщик взаимодействует с системой при отгрузке товаров, обновляя статусы и уведомляя менеджера по продажам." style="shape=note;whiteSpace=wrap;html=1;backgroundOutline=1;darkOpacity=0.05;" vertex="1" parent="1">
          <mxGeometry x="480" y="370" width="290" height="50" as="geometry" />
        </mxCell>
        <mxCell id="56gIFiBQEkmXOvVW59Tv-40" value="Менеджер по продажам регистрирует продажи в системе, взаимодействуя с базой данных и обновляя информацию о наличии товаров." style="shape=note;whiteSpace=wrap;html=1;backgroundOutline=1;darkOpacity=0.05;" vertex="1" parent="1">
          <mxGeometry x="480" y="465" width="290" height="50" as="geometry" />
        </mxCell>
        <mxCell id="56gIFiBQEkmXOvVW59Tv-41" value="Система уведомляет менеджера по закупкам о нехватке товаров на основе данных о текущем уровне запасов." style="shape=note;whiteSpace=wrap;html=1;backgroundOutline=1;darkOpacity=0.05;" vertex="1" parent="1">
          <mxGeometry x="480" y="595" width="290" height="50" as="geometry" />
        </mxCell>
        <mxCell id="56gIFiBQEkmXOvVW59Tv-42" value="Аналитик взаимодействует с системой для анализа данных о продажах, а затем предоставляет рекомендации по управлению поставками." style="shape=note;whiteSpace=wrap;html=1;backgroundOutline=1;darkOpacity=0.05;" vertex="1" parent="1">
          <mxGeometry x="480" y="725" width="290" height="50" as="geometry" />
        </mxCell>
      </root>
    </mxGraphModel>
  </diagram>
  <diagram id="4Z_PJO5JmsfyjfepCSnH" name="Диаграмма видов деятельности">
    <mxGraphModel dx="1495" dy="884" grid="1" gridSize="10" guides="1" tooltips="1" connect="1" arrows="1" fold="1" page="1" pageScale="1" pageWidth="827" pageHeight="1169" math="0" shadow="0">
      <root>
        <mxCell id="0" />
        <mxCell id="1" parent="0" />
        <mxCell id="HvZy8UK_cUUZQA4JLGYJ-42" value="Pool" style="swimlane;childLayout=stackLayout;resizeParent=1;resizeParentMax=0;startSize=20;html=1;" vertex="1" parent="1">
          <mxGeometry x="140" y="130" width="570" height="790" as="geometry" />
        </mxCell>
        <mxCell id="HvZy8UK_cUUZQA4JLGYJ-43" value="Кладовщик" style="swimlane;startSize=20;html=1;" vertex="1" parent="HvZy8UK_cUUZQA4JLGYJ-42">
          <mxGeometry y="20" width="170" height="770" as="geometry" />
        </mxCell>
        <mxCell id="HvZy8UK_cUUZQA4JLGYJ-59" style="edgeStyle=orthogonalEdgeStyle;rounded=0;orthogonalLoop=1;jettySize=auto;html=1;exitX=0.5;exitY=1;exitDx=0;exitDy=0;entryX=0.5;entryY=0;entryDx=0;entryDy=0;" edge="1" parent="HvZy8UK_cUUZQA4JLGYJ-43" source="HvZy8UK_cUUZQA4JLGYJ-46" target="HvZy8UK_cUUZQA4JLGYJ-49">
          <mxGeometry relative="1" as="geometry" />
        </mxCell>
        <mxCell id="HvZy8UK_cUUZQA4JLGYJ-46" value="" style="ellipse;html=1;shape=startState;fillColor=#000000;strokeColor=#ff0000;" vertex="1" parent="HvZy8UK_cUUZQA4JLGYJ-43">
          <mxGeometry x="66" y="30" width="30" height="30" as="geometry" />
        </mxCell>
        <mxCell id="HvZy8UK_cUUZQA4JLGYJ-64" style="edgeStyle=orthogonalEdgeStyle;rounded=0;orthogonalLoop=1;jettySize=auto;html=1;exitX=0.5;exitY=1;exitDx=0;exitDy=0;entryX=0.5;entryY=0;entryDx=0;entryDy=0;" edge="1" parent="HvZy8UK_cUUZQA4JLGYJ-43" source="HvZy8UK_cUUZQA4JLGYJ-49" target="HvZy8UK_cUUZQA4JLGYJ-62">
          <mxGeometry relative="1" as="geometry" />
        </mxCell>
        <mxCell id="HvZy8UK_cUUZQA4JLGYJ-49" value="Приём товаров" style="rounded=1;whiteSpace=wrap;html=1;" vertex="1" parent="HvZy8UK_cUUZQA4JLGYJ-43">
          <mxGeometry x="21" y="100" width="120" height="50" as="geometry" />
        </mxCell>
        <mxCell id="HvZy8UK_cUUZQA4JLGYJ-60" value="Начало" style="text;html=1;align=center;verticalAlign=middle;resizable=0;points=[];autosize=1;strokeColor=none;fillColor=none;" vertex="1" parent="HvZy8UK_cUUZQA4JLGYJ-43">
          <mxGeometry x="86" y="30" width="70" height="30" as="geometry" />
        </mxCell>
        <mxCell id="HvZy8UK_cUUZQA4JLGYJ-65" style="edgeStyle=orthogonalEdgeStyle;rounded=0;orthogonalLoop=1;jettySize=auto;html=1;exitX=0.5;exitY=1;exitDx=0;exitDy=0;entryX=0.5;entryY=0;entryDx=0;entryDy=0;" edge="1" parent="HvZy8UK_cUUZQA4JLGYJ-43" source="HvZy8UK_cUUZQA4JLGYJ-62" target="HvZy8UK_cUUZQA4JLGYJ-58">
          <mxGeometry relative="1" as="geometry" />
        </mxCell>
        <mxCell id="HvZy8UK_cUUZQA4JLGYJ-62" value="Распределение товара по складу" style="rounded=1;whiteSpace=wrap;html=1;" vertex="1" parent="HvZy8UK_cUUZQA4JLGYJ-43">
          <mxGeometry x="21" y="190" width="120" height="50" as="geometry" />
        </mxCell>
        <mxCell id="HvZy8UK_cUUZQA4JLGYJ-69" style="edgeStyle=orthogonalEdgeStyle;rounded=0;orthogonalLoop=1;jettySize=auto;html=1;exitX=0.5;exitY=1;exitDx=0;exitDy=0;entryX=0.5;entryY=0;entryDx=0;entryDy=0;" edge="1" parent="HvZy8UK_cUUZQA4JLGYJ-43" source="HvZy8UK_cUUZQA4JLGYJ-58" target="HvZy8UK_cUUZQA4JLGYJ-68">
          <mxGeometry relative="1" as="geometry" />
        </mxCell>
        <mxCell id="HvZy8UK_cUUZQA4JLGYJ-58" value="Разгрузка товаров" style="rounded=1;whiteSpace=wrap;html=1;" vertex="1" parent="HvZy8UK_cUUZQA4JLGYJ-43">
          <mxGeometry x="21" y="280" width="120" height="50" as="geometry" />
        </mxCell>
        <mxCell id="HvZy8UK_cUUZQA4JLGYJ-68" value="Отправка клиенту/на физ точку" style="rounded=1;whiteSpace=wrap;html=1;" vertex="1" parent="HvZy8UK_cUUZQA4JLGYJ-43">
          <mxGeometry x="21" y="370" width="120" height="50" as="geometry" />
        </mxCell>
        <mxCell id="HvZy8UK_cUUZQA4JLGYJ-44" value="Система уведомлений" style="swimlane;startSize=20;html=1;" vertex="1" parent="HvZy8UK_cUUZQA4JLGYJ-42">
          <mxGeometry x="170" y="20" width="250" height="770" as="geometry" />
        </mxCell>
        <mxCell id="HvZy8UK_cUUZQA4JLGYJ-71" style="edgeStyle=orthogonalEdgeStyle;rounded=0;orthogonalLoop=1;jettySize=auto;html=1;exitX=0.5;exitY=1;exitDx=0;exitDy=0;entryX=0.5;entryY=0;entryDx=0;entryDy=0;" edge="1" parent="HvZy8UK_cUUZQA4JLGYJ-44" source="HvZy8UK_cUUZQA4JLGYJ-67" target="HvZy8UK_cUUZQA4JLGYJ-70">
          <mxGeometry relative="1" as="geometry" />
        </mxCell>
        <mxCell id="HvZy8UK_cUUZQA4JLGYJ-67" value="Достигнут минимальный порог?" style="rounded=1;whiteSpace=wrap;html=1;" vertex="1" parent="HvZy8UK_cUUZQA4JLGYJ-44">
          <mxGeometry x="29" y="470" width="120" height="50" as="geometry" />
        </mxCell>
        <mxCell id="HvZy8UK_cUUZQA4JLGYJ-74" style="edgeStyle=orthogonalEdgeStyle;rounded=0;orthogonalLoop=1;jettySize=auto;html=1;exitX=0;exitY=0.5;exitDx=0;exitDy=0;entryX=0.5;entryY=0;entryDx=0;entryDy=0;" edge="1" parent="HvZy8UK_cUUZQA4JLGYJ-44" source="HvZy8UK_cUUZQA4JLGYJ-70" target="HvZy8UK_cUUZQA4JLGYJ-72">
          <mxGeometry relative="1" as="geometry" />
        </mxCell>
        <mxCell id="HvZy8UK_cUUZQA4JLGYJ-77" style="edgeStyle=orthogonalEdgeStyle;rounded=0;orthogonalLoop=1;jettySize=auto;html=1;exitX=1;exitY=0.5;exitDx=0;exitDy=0;entryX=0.5;entryY=0;entryDx=0;entryDy=0;" edge="1" parent="HvZy8UK_cUUZQA4JLGYJ-44" source="HvZy8UK_cUUZQA4JLGYJ-70" target="HvZy8UK_cUUZQA4JLGYJ-76">
          <mxGeometry relative="1" as="geometry" />
        </mxCell>
        <mxCell id="HvZy8UK_cUUZQA4JLGYJ-70" value="" style="rhombus;whiteSpace=wrap;html=1;" vertex="1" parent="HvZy8UK_cUUZQA4JLGYJ-44">
          <mxGeometry x="64" y="540" width="50" height="40" as="geometry" />
        </mxCell>
        <mxCell id="HvZy8UK_cUUZQA4JLGYJ-72" value="" style="ellipse;html=1;shape=endState;fillColor=#000000;strokeColor=#ff0000;" vertex="1" parent="HvZy8UK_cUUZQA4JLGYJ-44">
          <mxGeometry x="15" y="680" width="30" height="30" as="geometry" />
        </mxCell>
        <mxCell id="HvZy8UK_cUUZQA4JLGYJ-73" value="Конец" style="text;html=1;align=center;verticalAlign=middle;resizable=0;points=[];autosize=1;strokeColor=none;fillColor=none;" vertex="1" parent="HvZy8UK_cUUZQA4JLGYJ-44">
          <mxGeometry y="710" width="60" height="30" as="geometry" />
        </mxCell>
        <mxCell id="HvZy8UK_cUUZQA4JLGYJ-76" value="&lt;font style=&quot;font-size: 11px;&quot;&gt;Уведомление о достижении минимального порога&lt;/font&gt;" style="rounded=1;whiteSpace=wrap;html=1;" vertex="1" parent="HvZy8UK_cUUZQA4JLGYJ-44">
          <mxGeometry x="114" y="590" width="120" height="50" as="geometry" />
        </mxCell>
        <mxCell id="HvZy8UK_cUUZQA4JLGYJ-75" value="Нет" style="text;html=1;align=center;verticalAlign=middle;resizable=0;points=[];autosize=1;strokeColor=none;fillColor=none;" vertex="1" parent="HvZy8UK_cUUZQA4JLGYJ-44">
          <mxGeometry x="25" y="528" width="40" height="30" as="geometry" />
        </mxCell>
        <mxCell id="HvZy8UK_cUUZQA4JLGYJ-78" value="Да" style="text;html=1;align=center;verticalAlign=middle;resizable=0;points=[];autosize=1;strokeColor=none;fillColor=none;" vertex="1" parent="HvZy8UK_cUUZQA4JLGYJ-44">
          <mxGeometry x="135" y="528" width="40" height="30" as="geometry" />
        </mxCell>
        <mxCell id="HvZy8UK_cUUZQA4JLGYJ-79" style="edgeStyle=orthogonalEdgeStyle;rounded=0;orthogonalLoop=1;jettySize=auto;html=1;exitX=1;exitY=0.5;exitDx=0;exitDy=0;entryX=0.5;entryY=0;entryDx=0;entryDy=0;" edge="1" parent="HvZy8UK_cUUZQA4JLGYJ-42" source="HvZy8UK_cUUZQA4JLGYJ-76" target="HvZy8UK_cUUZQA4JLGYJ-57">
          <mxGeometry relative="1" as="geometry" />
        </mxCell>
        <mxCell id="HvZy8UK_cUUZQA4JLGYJ-45" value="Менеджер по закупкам" style="swimlane;startSize=20;html=1;" vertex="1" parent="HvZy8UK_cUUZQA4JLGYJ-42">
          <mxGeometry x="420" y="20" width="150" height="770" as="geometry" />
        </mxCell>
        <mxCell id="HvZy8UK_cUUZQA4JLGYJ-48" value="" style="ellipse;html=1;shape=endState;fillColor=#000000;strokeColor=#ff0000;" vertex="1" parent="HvZy8UK_cUUZQA4JLGYJ-45">
          <mxGeometry x="56" y="720" width="30" height="30" as="geometry" />
        </mxCell>
        <mxCell id="HvZy8UK_cUUZQA4JLGYJ-61" value="Конец" style="text;html=1;align=center;verticalAlign=middle;resizable=0;points=[];autosize=1;strokeColor=none;fillColor=none;" vertex="1" parent="HvZy8UK_cUUZQA4JLGYJ-45">
          <mxGeometry x="86" y="720" width="60" height="30" as="geometry" />
        </mxCell>
        <mxCell id="HvZy8UK_cUUZQA4JLGYJ-80" style="edgeStyle=orthogonalEdgeStyle;rounded=0;orthogonalLoop=1;jettySize=auto;html=1;exitX=0.5;exitY=1;exitDx=0;exitDy=0;entryX=0.5;entryY=0;entryDx=0;entryDy=0;" edge="1" parent="HvZy8UK_cUUZQA4JLGYJ-45" source="HvZy8UK_cUUZQA4JLGYJ-57" target="HvZy8UK_cUUZQA4JLGYJ-48">
          <mxGeometry relative="1" as="geometry" />
        </mxCell>
        <mxCell id="HvZy8UK_cUUZQA4JLGYJ-57" value="Закупка нужного товара" style="rounded=1;whiteSpace=wrap;html=1;" vertex="1" parent="HvZy8UK_cUUZQA4JLGYJ-45">
          <mxGeometry x="11" y="640" width="120" height="50" as="geometry" />
        </mxCell>
        <mxCell id="HvZy8UK_cUUZQA4JLGYJ-81" style="edgeStyle=orthogonalEdgeStyle;rounded=0;orthogonalLoop=1;jettySize=auto;html=1;exitX=0.5;exitY=1;exitDx=0;exitDy=0;entryX=0.5;entryY=0;entryDx=0;entryDy=0;" edge="1" parent="HvZy8UK_cUUZQA4JLGYJ-42" source="HvZy8UK_cUUZQA4JLGYJ-68" target="HvZy8UK_cUUZQA4JLGYJ-67">
          <mxGeometry relative="1" as="geometry" />
        </mxCell>
      </root>
    </mxGraphModel>
  </diagram>
  <diagram id="jiW8HVFANMnhs85g8QAs" name="Диаграмма последовательностей">
    <mxGraphModel dx="979" dy="579" grid="1" gridSize="10" guides="1" tooltips="1" connect="1" arrows="1" fold="1" page="1" pageScale="1" pageWidth="827" pageHeight="1169" math="0" shadow="0">
      <root>
        <mxCell id="0" />
        <mxCell id="1" parent="0" />
        <mxCell id="HY96IUJnJLHXuDZ6jJHf-5" style="edgeStyle=orthogonalEdgeStyle;rounded=0;orthogonalLoop=1;jettySize=auto;html=1;endArrow=none;endFill=0;" edge="1" parent="1" source="HY96IUJnJLHXuDZ6jJHf-15">
          <mxGeometry relative="1" as="geometry">
            <mxPoint x="135" y="520" as="targetPoint" />
          </mxGeometry>
        </mxCell>
        <mxCell id="HY96IUJnJLHXuDZ6jJHf-1" value="Менеджер" style="shape=umlActor;verticalLabelPosition=bottom;verticalAlign=top;html=1;outlineConnect=0;" vertex="1" parent="1">
          <mxGeometry x="120" y="200" width="30" height="60" as="geometry" />
        </mxCell>
        <mxCell id="HY96IUJnJLHXuDZ6jJHf-6" style="edgeStyle=orthogonalEdgeStyle;rounded=0;orthogonalLoop=1;jettySize=auto;html=1;endArrow=none;endFill=0;" edge="1" parent="1" source="HY96IUJnJLHXuDZ6jJHf-9">
          <mxGeometry relative="1" as="geometry">
            <mxPoint x="320" y="520" as="targetPoint" />
          </mxGeometry>
        </mxCell>
        <mxCell id="HY96IUJnJLHXuDZ6jJHf-2" value="Кладовщик" style="rounded=0;whiteSpace=wrap;html=1;" vertex="1" parent="1">
          <mxGeometry x="260" y="200" width="120" height="60" as="geometry" />
        </mxCell>
        <mxCell id="HY96IUJnJLHXuDZ6jJHf-7" style="edgeStyle=orthogonalEdgeStyle;rounded=0;orthogonalLoop=1;jettySize=auto;html=1;endArrow=none;endFill=0;" edge="1" parent="1" source="HY96IUJnJLHXuDZ6jJHf-18">
          <mxGeometry relative="1" as="geometry">
            <mxPoint x="540" y="520" as="targetPoint" />
          </mxGeometry>
        </mxCell>
        <mxCell id="HY96IUJnJLHXuDZ6jJHf-3" value="Система увед.&amp;nbsp;" style="rounded=0;whiteSpace=wrap;html=1;" vertex="1" parent="1">
          <mxGeometry x="480" y="200" width="120" height="60" as="geometry" />
        </mxCell>
        <mxCell id="HY96IUJnJLHXuDZ6jJHf-11" value="" style="edgeStyle=orthogonalEdgeStyle;rounded=0;orthogonalLoop=1;jettySize=auto;html=1;endArrow=none;endFill=0;" edge="1" parent="1" source="HY96IUJnJLHXuDZ6jJHf-1" target="HY96IUJnJLHXuDZ6jJHf-8">
          <mxGeometry relative="1" as="geometry">
            <mxPoint x="135" y="520" as="targetPoint" />
            <mxPoint x="135" y="260" as="sourcePoint" />
          </mxGeometry>
        </mxCell>
        <mxCell id="HY96IUJnJLHXuDZ6jJHf-34" style="edgeStyle=orthogonalEdgeStyle;rounded=0;orthogonalLoop=1;jettySize=auto;html=1;exitX=0.5;exitY=0;exitDx=0;exitDy=0;entryX=0.5;entryY=1;entryDx=0;entryDy=0;" edge="1" parent="1" source="HY96IUJnJLHXuDZ6jJHf-8" target="HY96IUJnJLHXuDZ6jJHf-12">
          <mxGeometry relative="1" as="geometry" />
        </mxCell>
        <mxCell id="HY96IUJnJLHXuDZ6jJHf-8" value="" style="rounded=0;whiteSpace=wrap;html=1;rotation=90;" vertex="1" parent="1">
          <mxGeometry x="115" y="320" width="40" height="10" as="geometry" />
        </mxCell>
        <mxCell id="HY96IUJnJLHXuDZ6jJHf-14" value="" style="rounded=0;whiteSpace=wrap;html=1;rotation=90;" vertex="1" parent="1">
          <mxGeometry x="700" y="580" width="40" height="10" as="geometry" />
        </mxCell>
        <mxCell id="HY96IUJnJLHXuDZ6jJHf-17" value="" style="rounded=0;whiteSpace=wrap;html=1;rotation=90;" vertex="1" parent="1">
          <mxGeometry x="660" y="580" width="40" height="10" as="geometry" />
        </mxCell>
        <mxCell id="HY96IUJnJLHXuDZ6jJHf-19" value="" style="rounded=0;whiteSpace=wrap;html=1;rotation=90;" vertex="1" parent="1">
          <mxGeometry x="740" y="650" width="40" height="10" as="geometry" />
        </mxCell>
        <mxCell id="HY96IUJnJLHXuDZ6jJHf-20" value="" style="rounded=0;whiteSpace=wrap;html=1;rotation=90;" vertex="1" parent="1">
          <mxGeometry x="700" y="650" width="40" height="10" as="geometry" />
        </mxCell>
        <mxCell id="HY96IUJnJLHXuDZ6jJHf-21" value="" style="rounded=0;whiteSpace=wrap;html=1;rotation=90;" vertex="1" parent="1">
          <mxGeometry x="740" y="720" width="40" height="10" as="geometry" />
        </mxCell>
        <mxCell id="HY96IUJnJLHXuDZ6jJHf-22" value="" style="rounded=0;whiteSpace=wrap;html=1;rotation=90;" vertex="1" parent="1">
          <mxGeometry x="700" y="720" width="40" height="10" as="geometry" />
        </mxCell>
        <mxCell id="HY96IUJnJLHXuDZ6jJHf-23" value="" style="rounded=0;whiteSpace=wrap;html=1;rotation=90;" vertex="1" parent="1">
          <mxGeometry x="660" y="650" width="40" height="10" as="geometry" />
        </mxCell>
        <mxCell id="HY96IUJnJLHXuDZ6jJHf-24" value="" style="rounded=0;whiteSpace=wrap;html=1;rotation=90;" vertex="1" parent="1">
          <mxGeometry x="620" y="650" width="40" height="10" as="geometry" />
        </mxCell>
        <mxCell id="HY96IUJnJLHXuDZ6jJHf-25" value="" style="rounded=0;whiteSpace=wrap;html=1;rotation=90;" vertex="1" parent="1">
          <mxGeometry x="660" y="720" width="40" height="10" as="geometry" />
        </mxCell>
        <mxCell id="HY96IUJnJLHXuDZ6jJHf-26" value="" style="rounded=0;whiteSpace=wrap;html=1;rotation=90;" vertex="1" parent="1">
          <mxGeometry x="620" y="720" width="40" height="10" as="geometry" />
        </mxCell>
        <mxCell id="HY96IUJnJLHXuDZ6jJHf-27" value="" style="edgeStyle=orthogonalEdgeStyle;rounded=0;orthogonalLoop=1;jettySize=auto;html=1;endArrow=none;endFill=0;" edge="1" parent="1" source="HY96IUJnJLHXuDZ6jJHf-8" target="HY96IUJnJLHXuDZ6jJHf-16">
          <mxGeometry relative="1" as="geometry">
            <mxPoint x="135" y="520" as="targetPoint" />
            <mxPoint x="135" y="335" as="sourcePoint" />
          </mxGeometry>
        </mxCell>
        <mxCell id="HY96IUJnJLHXuDZ6jJHf-36" style="edgeStyle=orthogonalEdgeStyle;rounded=0;orthogonalLoop=1;jettySize=auto;html=1;exitX=0.5;exitY=0;exitDx=0;exitDy=0;entryX=0.5;entryY=1;entryDx=0;entryDy=0;" edge="1" parent="1" source="HY96IUJnJLHXuDZ6jJHf-16" target="HY96IUJnJLHXuDZ6jJHf-9">
          <mxGeometry relative="1" as="geometry" />
        </mxCell>
        <mxCell id="HY96IUJnJLHXuDZ6jJHf-16" value="" style="rounded=0;whiteSpace=wrap;html=1;rotation=90;" vertex="1" parent="1">
          <mxGeometry x="115" y="390" width="40" height="10" as="geometry" />
        </mxCell>
        <mxCell id="HY96IUJnJLHXuDZ6jJHf-30" value="" style="edgeStyle=orthogonalEdgeStyle;rounded=0;orthogonalLoop=1;jettySize=auto;html=1;endArrow=none;endFill=0;" edge="1" parent="1" source="HY96IUJnJLHXuDZ6jJHf-16" target="HY96IUJnJLHXuDZ6jJHf-15">
          <mxGeometry relative="1" as="geometry">
            <mxPoint x="135" y="520" as="targetPoint" />
            <mxPoint x="135" y="395" as="sourcePoint" />
          </mxGeometry>
        </mxCell>
        <mxCell id="HY96IUJnJLHXuDZ6jJHf-15" value="" style="rounded=0;whiteSpace=wrap;html=1;rotation=90;" vertex="1" parent="1">
          <mxGeometry x="115" y="460" width="40" height="10" as="geometry" />
        </mxCell>
        <mxCell id="HY96IUJnJLHXuDZ6jJHf-31" value="" style="edgeStyle=orthogonalEdgeStyle;rounded=0;orthogonalLoop=1;jettySize=auto;html=1;endArrow=none;endFill=0;" edge="1" parent="1" source="HY96IUJnJLHXuDZ6jJHf-2" target="HY96IUJnJLHXuDZ6jJHf-12">
          <mxGeometry relative="1" as="geometry">
            <mxPoint x="320" y="520" as="targetPoint" />
            <mxPoint x="320" y="260" as="sourcePoint" />
          </mxGeometry>
        </mxCell>
        <mxCell id="HY96IUJnJLHXuDZ6jJHf-35" style="edgeStyle=orthogonalEdgeStyle;rounded=0;orthogonalLoop=1;jettySize=auto;html=1;exitX=0.5;exitY=0;exitDx=0;exitDy=0;entryX=0.5;entryY=1;entryDx=0;entryDy=0;" edge="1" parent="1" source="HY96IUJnJLHXuDZ6jJHf-12" target="HY96IUJnJLHXuDZ6jJHf-13">
          <mxGeometry relative="1" as="geometry" />
        </mxCell>
        <mxCell id="HY96IUJnJLHXuDZ6jJHf-12" value="" style="rounded=0;whiteSpace=wrap;html=1;rotation=90;" vertex="1" parent="1">
          <mxGeometry x="300" y="320" width="40" height="10" as="geometry" />
        </mxCell>
        <mxCell id="HY96IUJnJLHXuDZ6jJHf-32" value="" style="edgeStyle=orthogonalEdgeStyle;rounded=0;orthogonalLoop=1;jettySize=auto;html=1;endArrow=none;endFill=0;" edge="1" parent="1" source="HY96IUJnJLHXuDZ6jJHf-12" target="HY96IUJnJLHXuDZ6jJHf-9">
          <mxGeometry relative="1" as="geometry">
            <mxPoint x="320" y="520" as="targetPoint" />
            <mxPoint x="320" y="345" as="sourcePoint" />
          </mxGeometry>
        </mxCell>
        <mxCell id="HY96IUJnJLHXuDZ6jJHf-9" value="" style="rounded=0;whiteSpace=wrap;html=1;rotation=90;" vertex="1" parent="1">
          <mxGeometry x="300" y="390" width="40" height="10" as="geometry" />
        </mxCell>
        <mxCell id="HY96IUJnJLHXuDZ6jJHf-33" value="" style="edgeStyle=orthogonalEdgeStyle;rounded=0;orthogonalLoop=1;jettySize=auto;html=1;endArrow=none;endFill=0;" edge="1" parent="1" source="HY96IUJnJLHXuDZ6jJHf-3" target="HY96IUJnJLHXuDZ6jJHf-13">
          <mxGeometry relative="1" as="geometry">
            <mxPoint x="540" y="520" as="targetPoint" />
            <mxPoint x="540" y="260" as="sourcePoint" />
          </mxGeometry>
        </mxCell>
        <mxCell id="HY96IUJnJLHXuDZ6jJHf-13" value="" style="rounded=0;whiteSpace=wrap;html=1;rotation=90;" vertex="1" parent="1">
          <mxGeometry x="520" y="320" width="40" height="10" as="geometry" />
        </mxCell>
        <mxCell id="HY96IUJnJLHXuDZ6jJHf-37" value="" style="edgeStyle=orthogonalEdgeStyle;rounded=0;orthogonalLoop=1;jettySize=auto;html=1;endArrow=none;endFill=0;" edge="1" parent="1" source="HY96IUJnJLHXuDZ6jJHf-13" target="HY96IUJnJLHXuDZ6jJHf-18">
          <mxGeometry relative="1" as="geometry">
            <mxPoint x="540" y="520" as="targetPoint" />
            <mxPoint x="540" y="345" as="sourcePoint" />
          </mxGeometry>
        </mxCell>
        <mxCell id="HY96IUJnJLHXuDZ6jJHf-40" style="edgeStyle=orthogonalEdgeStyle;rounded=0;orthogonalLoop=1;jettySize=auto;html=1;exitX=0.5;exitY=1;exitDx=0;exitDy=0;entryX=0.5;entryY=0;entryDx=0;entryDy=0;dashed=1;" edge="1" parent="1" source="HY96IUJnJLHXuDZ6jJHf-18" target="HY96IUJnJLHXuDZ6jJHf-15">
          <mxGeometry relative="1" as="geometry" />
        </mxCell>
        <mxCell id="HY96IUJnJLHXuDZ6jJHf-18" value="" style="rounded=0;whiteSpace=wrap;html=1;rotation=90;" vertex="1" parent="1">
          <mxGeometry x="520" y="460" width="40" height="10" as="geometry" />
        </mxCell>
        <mxCell id="HY96IUJnJLHXuDZ6jJHf-38" value="Запрос на приемку товаров" style="text;html=1;align=center;verticalAlign=middle;resizable=0;points=[];autosize=1;strokeColor=none;fillColor=none;" vertex="1" parent="1">
          <mxGeometry x="140" y="300" width="180" height="30" as="geometry" />
        </mxCell>
        <mxCell id="HY96IUJnJLHXuDZ6jJHf-39" value="Нехватка товара" style="text;html=1;align=center;verticalAlign=middle;resizable=0;points=[];autosize=1;strokeColor=none;fillColor=none;" vertex="1" parent="1">
          <mxGeometry x="350" y="298" width="120" height="30" as="geometry" />
        </mxCell>
        <mxCell id="HY96IUJnJLHXuDZ6jJHf-41" value="Уведомление о нехватке товаров" style="text;html=1;align=center;verticalAlign=middle;resizable=0;points=[];autosize=1;strokeColor=none;fillColor=none;" vertex="1" parent="1">
          <mxGeometry x="320" y="440" width="210" height="30" as="geometry" />
        </mxCell>
        <mxCell id="HY96IUJnJLHXuDZ6jJHf-42" value="Запрос на перенос товара" style="text;html=1;align=center;verticalAlign=middle;resizable=0;points=[];autosize=1;strokeColor=none;fillColor=none;" vertex="1" parent="1">
          <mxGeometry x="140" y="370" width="170" height="30" as="geometry" />
        </mxCell>
      </root>
    </mxGraphModel>
  </diagram>
  <diagram id="N_c48tXFn8hu-pPkPNft" name="Диаграмма состояний">
    <mxGraphModel dx="1420" dy="840" grid="1" gridSize="10" guides="1" tooltips="1" connect="1" arrows="1" fold="1" page="1" pageScale="1" pageWidth="827" pageHeight="1169" math="0" shadow="0">
      <root>
        <mxCell id="0" />
        <mxCell id="1" parent="0" />
        <mxCell id="iYi8IQwzC5xAkmEQkKuw-23" style="edgeStyle=orthogonalEdgeStyle;rounded=0;orthogonalLoop=1;jettySize=auto;html=1;exitX=0.5;exitY=1;exitDx=0;exitDy=0;entryX=0.5;entryY=0;entryDx=0;entryDy=0;" edge="1" parent="1" source="iYi8IQwzC5xAkmEQkKuw-1" target="iYi8IQwzC5xAkmEQkKuw-4">
          <mxGeometry relative="1" as="geometry" />
        </mxCell>
        <mxCell id="iYi8IQwzC5xAkmEQkKuw-1" value="" style="ellipse;html=1;shape=startState;fillColor=#000000;strokeColor=#ff0000;" vertex="1" parent="1">
          <mxGeometry x="145" y="110" width="30" height="30" as="geometry" />
        </mxCell>
        <mxCell id="iYi8IQwzC5xAkmEQkKuw-3" value="" style="ellipse;html=1;shape=endState;fillColor=#000000;strokeColor=#ff0000;" vertex="1" parent="1">
          <mxGeometry x="145" y="370" width="30" height="30" as="geometry" />
        </mxCell>
        <mxCell id="iYi8IQwzC5xAkmEQkKuw-13" style="edgeStyle=orthogonalEdgeStyle;rounded=0;orthogonalLoop=1;jettySize=auto;html=1;exitX=1;exitY=0.5;exitDx=0;exitDy=0;entryX=0;entryY=0.5;entryDx=0;entryDy=0;" edge="1" parent="1" source="iYi8IQwzC5xAkmEQkKuw-4" target="iYi8IQwzC5xAkmEQkKuw-7">
          <mxGeometry relative="1" as="geometry" />
        </mxCell>
        <mxCell id="iYi8IQwzC5xAkmEQkKuw-14" value="Новый заказ поступил" style="edgeLabel;html=1;align=center;verticalAlign=middle;resizable=0;points=[];" vertex="1" connectable="0" parent="iYi8IQwzC5xAkmEQkKuw-13">
          <mxGeometry x="0.0211" y="2" relative="1" as="geometry">
            <mxPoint as="offset" />
          </mxGeometry>
        </mxCell>
        <mxCell id="iYi8IQwzC5xAkmEQkKuw-22" style="edgeStyle=orthogonalEdgeStyle;rounded=0;orthogonalLoop=1;jettySize=auto;html=1;exitX=0.5;exitY=1;exitDx=0;exitDy=0;entryX=0.5;entryY=0;entryDx=0;entryDy=0;" edge="1" parent="1" source="iYi8IQwzC5xAkmEQkKuw-4" target="iYi8IQwzC5xAkmEQkKuw-8">
          <mxGeometry relative="1" as="geometry" />
        </mxCell>
        <mxCell id="iYi8IQwzC5xAkmEQkKuw-4" value="Ожидание приемки" style="rounded=1;whiteSpace=wrap;html=1;arcSize=30;" vertex="1" parent="1">
          <mxGeometry x="110" y="190" width="100" height="50" as="geometry" />
        </mxCell>
        <mxCell id="iYi8IQwzC5xAkmEQkKuw-5" value="Обработка заказа" style="rounded=1;whiteSpace=wrap;html=1;arcSize=30;" vertex="1" parent="1">
          <mxGeometry x="580" y="190" width="100" height="50" as="geometry" />
        </mxCell>
        <mxCell id="iYi8IQwzC5xAkmEQkKuw-6" value="" style="rounded=1;whiteSpace=wrap;html=1;arcSize=30;" vertex="1" parent="1">
          <mxGeometry x="190" y="645" width="100" height="50" as="geometry" />
        </mxCell>
        <mxCell id="iYi8IQwzC5xAkmEQkKuw-16" style="edgeStyle=orthogonalEdgeStyle;rounded=0;orthogonalLoop=1;jettySize=auto;html=1;exitX=0.5;exitY=1;exitDx=0;exitDy=0;entryX=0;entryY=0.5;entryDx=0;entryDy=0;" edge="1" parent="1" source="iYi8IQwzC5xAkmEQkKuw-7" target="iYi8IQwzC5xAkmEQkKuw-15">
          <mxGeometry relative="1" as="geometry" />
        </mxCell>
        <mxCell id="iYi8IQwzC5xAkmEQkKuw-17" value="Товар не прошел приемку" style="edgeLabel;html=1;align=center;verticalAlign=middle;resizable=0;points=[];" vertex="1" connectable="0" parent="iYi8IQwzC5xAkmEQkKuw-16">
          <mxGeometry x="0.1273" y="4" relative="1" as="geometry">
            <mxPoint as="offset" />
          </mxGeometry>
        </mxCell>
        <mxCell id="iYi8IQwzC5xAkmEQkKuw-18" style="edgeStyle=orthogonalEdgeStyle;rounded=0;orthogonalLoop=1;jettySize=auto;html=1;exitX=1;exitY=0.5;exitDx=0;exitDy=0;entryX=0;entryY=0.5;entryDx=0;entryDy=0;" edge="1" parent="1" source="iYi8IQwzC5xAkmEQkKuw-7" target="iYi8IQwzC5xAkmEQkKuw-5">
          <mxGeometry relative="1" as="geometry" />
        </mxCell>
        <mxCell id="iYi8IQwzC5xAkmEQkKuw-19" value="Товар принят" style="edgeLabel;html=1;align=center;verticalAlign=middle;resizable=0;points=[];" vertex="1" connectable="0" parent="iYi8IQwzC5xAkmEQkKuw-18">
          <mxGeometry x="-0.0556" y="1" relative="1" as="geometry">
            <mxPoint as="offset" />
          </mxGeometry>
        </mxCell>
        <mxCell id="iYi8IQwzC5xAkmEQkKuw-7" value="Приемка товаров" style="rounded=1;whiteSpace=wrap;html=1;arcSize=30;" vertex="1" parent="1">
          <mxGeometry x="364" y="190" width="100" height="50" as="geometry" />
        </mxCell>
        <mxCell id="iYi8IQwzC5xAkmEQkKuw-20" style="edgeStyle=orthogonalEdgeStyle;rounded=0;orthogonalLoop=1;jettySize=auto;html=1;exitX=0.5;exitY=1;exitDx=0;exitDy=0;entryX=0.5;entryY=0;entryDx=0;entryDy=0;" edge="1" parent="1" source="iYi8IQwzC5xAkmEQkKuw-8" target="iYi8IQwzC5xAkmEQkKuw-3">
          <mxGeometry relative="1" as="geometry" />
        </mxCell>
        <mxCell id="iYi8IQwzC5xAkmEQkKuw-21" value="Товар отгружен" style="edgeLabel;html=1;align=center;verticalAlign=middle;resizable=0;points=[];" vertex="1" connectable="0" parent="iYi8IQwzC5xAkmEQkKuw-20">
          <mxGeometry x="-0.1143" y="-2" relative="1" as="geometry">
            <mxPoint as="offset" />
          </mxGeometry>
        </mxCell>
        <mxCell id="iYi8IQwzC5xAkmEQkKuw-8" value="Отгрузка товаров" style="rounded=1;whiteSpace=wrap;html=1;arcSize=30;" vertex="1" parent="1">
          <mxGeometry x="110" y="270" width="100" height="50" as="geometry" />
        </mxCell>
        <mxCell id="iYi8IQwzC5xAkmEQkKuw-9" value="" style="rounded=1;whiteSpace=wrap;html=1;arcSize=30;" vertex="1" parent="1">
          <mxGeometry x="190" y="705" width="100" height="50" as="geometry" />
        </mxCell>
        <mxCell id="iYi8IQwzC5xAkmEQkKuw-10" value="" style="rounded=1;whiteSpace=wrap;html=1;arcSize=30;" vertex="1" parent="1">
          <mxGeometry x="190" y="765" width="100" height="50" as="geometry" />
        </mxCell>
        <mxCell id="iYi8IQwzC5xAkmEQkKuw-11" value="" style="rounded=1;whiteSpace=wrap;html=1;arcSize=30;" vertex="1" parent="1">
          <mxGeometry x="80" y="705" width="100" height="50" as="geometry" />
        </mxCell>
        <mxCell id="iYi8IQwzC5xAkmEQkKuw-12" value="" style="rounded=1;whiteSpace=wrap;html=1;arcSize=30;" vertex="1" parent="1">
          <mxGeometry x="80" y="765" width="100" height="50" as="geometry" />
        </mxCell>
        <mxCell id="iYi8IQwzC5xAkmEQkKuw-15" value="H" style="ellipse;html=1;" vertex="1" parent="1">
          <mxGeometry x="590" y="260" width="30" height="30" as="geometry" />
        </mxCell>
        <mxCell id="iYi8IQwzC5xAkmEQkKuw-24" value="Начало" style="text;html=1;align=center;verticalAlign=middle;resizable=0;points=[];autosize=1;strokeColor=none;fillColor=none;" vertex="1" parent="1">
          <mxGeometry x="125" y="78" width="70" height="30" as="geometry" />
        </mxCell>
        <mxCell id="iYi8IQwzC5xAkmEQkKuw-25" value="Конец" style="text;html=1;align=center;verticalAlign=middle;resizable=0;points=[];autosize=1;strokeColor=none;fillColor=none;" vertex="1" parent="1">
          <mxGeometry x="130" y="408" width="60" height="30" as="geometry" />
        </mxCell>
      </root>
    </mxGraphModel>
  </diagram>
  <diagram id="LuwR43Q6YuwZ1wJH8W8z" name="Диаграмма развертывания">
    <mxGraphModel dx="1136" dy="672" grid="1" gridSize="10" guides="1" tooltips="1" connect="1" arrows="1" fold="1" page="1" pageScale="1" pageWidth="827" pageHeight="1169" math="0" shadow="0">
      <root>
        <mxCell id="0" />
        <mxCell id="1" parent="0" />
        <mxCell id="RmVulyQ0famTXXnWWm08-14" style="edgeStyle=orthogonalEdgeStyle;rounded=0;orthogonalLoop=1;jettySize=auto;html=1;exitX=0;exitY=0;exitDx=0;exitDy=115;exitPerimeter=0;entryX=0.5;entryY=1;entryDx=0;entryDy=0;" edge="1" parent="1" source="RmVulyQ0famTXXnWWm08-5" target="RmVulyQ0famTXXnWWm08-10">
          <mxGeometry relative="1" as="geometry" />
        </mxCell>
        <mxCell id="RmVulyQ0famTXXnWWm08-5" value="Кллиентский планшет кладовшика" style="shape=cube;whiteSpace=wrap;html=1;boundedLbl=1;backgroundOutline=1;darkOpacity=0.05;darkOpacity2=0.1;direction=south;size=10;" vertex="1" parent="1">
          <mxGeometry x="340" y="480" width="240" height="140" as="geometry" />
        </mxCell>
        <mxCell id="RmVulyQ0famTXXnWWm08-7" value="Сервер Склада" style="shape=cube;whiteSpace=wrap;html=1;boundedLbl=1;backgroundOutline=1;darkOpacity=0.05;darkOpacity2=0.1;direction=south;size=10;" vertex="1" parent="1">
          <mxGeometry x="210" y="270" width="240" height="140" as="geometry" />
        </mxCell>
        <mxCell id="RmVulyQ0famTXXnWWm08-9" value="Клиентский ПК Менеджера по Закупкам" style="shape=cube;whiteSpace=wrap;html=1;boundedLbl=1;backgroundOutline=1;darkOpacity=0.05;darkOpacity2=0.1;direction=south;size=10;" vertex="1" parent="1">
          <mxGeometry x="70" y="480" width="240" height="140" as="geometry" />
        </mxCell>
        <mxCell id="RmVulyQ0famTXXnWWm08-12" value="Спец ПО для скрирования" style="shape=module;align=left;spacingLeft=20;align=center;verticalAlign=top;whiteSpace=wrap;html=1;" vertex="1" parent="1">
          <mxGeometry x="370" y="570" width="160" height="50" as="geometry" />
        </mxCell>
        <mxCell id="RmVulyQ0famTXXnWWm08-6" value="Интерфейс Менеджера по Закупкам" style="shape=module;align=left;spacingLeft=20;align=center;verticalAlign=top;whiteSpace=wrap;html=1;" vertex="1" parent="1">
          <mxGeometry x="80" y="570" width="200" height="50" as="geometry" />
        </mxCell>
        <mxCell id="RmVulyQ0famTXXnWWm08-17" style="edgeStyle=orthogonalEdgeStyle;rounded=0;orthogonalLoop=1;jettySize=auto;html=1;exitX=1;exitY=0.5;exitDx=0;exitDy=0;entryX=1;entryY=0.5;entryDx=0;entryDy=0;" edge="1" parent="1" source="RmVulyQ0famTXXnWWm08-8" target="RmVulyQ0famTXXnWWm08-6">
          <mxGeometry relative="1" as="geometry" />
        </mxCell>
        <mxCell id="RmVulyQ0famTXXnWWm08-8" value="Система Уведомлений" style="shape=module;align=left;spacingLeft=20;align=center;verticalAlign=top;whiteSpace=wrap;html=1;" vertex="1" parent="1">
          <mxGeometry x="80" y="490" width="200" height="50" as="geometry" />
        </mxCell>
        <mxCell id="RmVulyQ0famTXXnWWm08-10" value="Система Складского Учета" style="shape=module;align=left;spacingLeft=20;align=center;verticalAlign=top;whiteSpace=wrap;html=1;" vertex="1" parent="1">
          <mxGeometry x="220" y="360" width="200" height="50" as="geometry" />
        </mxCell>
        <mxCell id="RmVulyQ0famTXXnWWm08-16" style="edgeStyle=orthogonalEdgeStyle;rounded=0;orthogonalLoop=1;jettySize=auto;html=1;exitX=1;exitY=0.5;exitDx=0;exitDy=0;entryX=1;entryY=0.5;entryDx=0;entryDy=0;" edge="1" parent="1" source="RmVulyQ0famTXXnWWm08-11" target="RmVulyQ0famTXXnWWm08-10">
          <mxGeometry relative="1" as="geometry" />
        </mxCell>
        <mxCell id="RmVulyQ0famTXXnWWm08-11" value="База Данных" style="shape=module;align=left;spacingLeft=20;align=center;verticalAlign=top;whiteSpace=wrap;html=1;" vertex="1" parent="1">
          <mxGeometry x="220" y="280" width="200" height="50" as="geometry" />
        </mxCell>
        <mxCell id="RmVulyQ0famTXXnWWm08-13" style="edgeStyle=orthogonalEdgeStyle;rounded=0;orthogonalLoop=1;jettySize=auto;html=1;entryX=0.5;entryY=1;entryDx=0;entryDy=0;exitX=0;exitY=0;exitDx=0;exitDy=115;exitPerimeter=0;" edge="1" parent="1" source="RmVulyQ0famTXXnWWm08-9" target="RmVulyQ0famTXXnWWm08-10">
          <mxGeometry relative="1" as="geometry" />
        </mxCell>
      </root>
    </mxGraphModel>
  </diagram>
</mxfile>
